<?xml version="1.0" encoding="iso-8859-1"?>
<!-- Generator: Adobe Illustrator 18.0.0, SVG Export Plug-In . SVG Version: 6.00 Build 0)  -->
<!DOCTYPE svg PUBLIC "-//W3C//DTD SVG 1.1//EN" "http://www.w3.org/Graphics/SVG/1.1/DTD/svg11.dtd">
<svg version="1.1" id="Capa_1" xmlns="http://www.w3.org/2000/svg" xmlns:xlink="http://www.w3.org/1999/xlink" x="0px" y="0px"
	 viewBox="0 0 484.605 484.605" style="enable-background:new 0 0 484.605 484.605;" xml:space="preserve">
<g>
	<path d="M262.66,133.117c25.642,0,46.502-20.861,46.502-46.504c0-25.641-20.86-46.5-46.502-46.5c-25.641,0-46.5,20.859-46.5,46.5
		C216.16,112.256,237.02,133.117,262.66,133.117z M262.66,48.613c20.954,0,38.002,17.047,38.002,38
		c0,20.955-17.048,38.004-38.002,38.004c-20.954,0-38-17.049-38-38.004C224.66,65.66,241.707,48.613,262.66,48.613z"/>
	<path d="M300.436,199.568c-2.348,0-4.25,1.902-4.25,4.25v102.77c0,2.348,1.902,4.25,4.25,4.25c2.348,0,4.25-1.902,4.25-4.25
		v-102.77C304.686,201.471,302.783,199.568,300.436,199.568z"/>
	<path d="M399.818,241.385l-85.092-80.62c-0.045-0.041,0.047,0.039,0,0c-0.157-0.133,0.169,0.106,0,0
		c-12.879-13.248-35.66-23.241-52.065-23.241c-11.488,0-25.909,4.376-37.947,11.737l-78.04-75.644
		c-0.51-0.482-1.043-0.924-1.583-1.352h7.244c8.334,0,15.115-6.78,15.115-15.115V28.363c0-8.335-6.78-15.115-15.115-15.115h-32.249
		V4.25c0-2.348-1.903-4.25-4.25-4.25H99.539c-2.347,0-4.25,1.902-4.25,4.25v8.998h-2.706c-8.335,0-15.115,6.78-15.115,15.115V57.15
		c0,8.335,6.78,15.115,15.115,15.115h23.506c-0.884,0.697-1.742,1.441-2.537,2.282c-8.874,9.389-8.456,24.247,0.925,33.116
		l86.252,81.883l0,266.559c0,15.715,12.786,28.5,28.502,28.5c15.715,0,28.501-12.785,28.501-28.5V336.939
		c3.397,0.324,6.473,0.323,9.858,0.001v119.165c0,15.715,12.785,28.5,28.5,28.5c15.717,0,28.503-12.785,28.503-28.5l-0.001-222.38
		l43.03,41.708c4.383,4.145,10.069,6.404,16.076,6.404c0.226,0,0.451-0.003,0.677-0.01c6.256-0.176,12.068-2.778,16.369-7.326
		C409.619,265.114,409.201,250.256,399.818,241.385z M103.789,8.5h7.797v4.748h-7.797V8.5z M85.968,57.15V28.363
		c0-3.647,2.967-6.615,6.615-6.615h59.752c3.647,0,6.615,2.968,6.615,6.615V57.15c0,3.647-2.967,6.615-6.615,6.615H92.583
		C88.935,63.766,85.968,60.798,85.968,57.15z M201.206,178.279l-80.883-76.785c-5.982-5.656-6.248-15.125-0.595-21.107
		c5.657-5.982,15.124-6.248,21.068-0.63l76.805,74.448C209.214,160.822,202.923,169.059,201.206,178.279z M316.093,183.32
		l0.001,272.785c0,11.028-8.974,20-20.003,20c-11.028,0-20-8.972-20-20V332.068c0-1.258-0.557-2.45-1.521-3.258
		c-0.771-0.645-1.739-0.992-2.729-0.992c-0.247,0-0.496,0.022-0.744,0.065c-2.984,0.531-5.821,0.8-8.435,0.8
		c-2.603,0-5.442-0.27-8.438-0.8c-1.233-0.222-2.508,0.12-3.472,0.928c-0.963,0.808-1.52,2-1.52,3.257v124.037
		c0,10.131-7.579,18.506-17.361,19.805v-53.035c0-2.348-1.903-4.25-4.25-4.25c-2.347,0-4.25,1.902-4.25,4.25v52.351
		c-8.178-2.511-14.142-10.13-14.142-19.12l0-272.785c0-20.228,32.819-37.297,53.432-37.297
		C283.273,146.023,316.093,163.093,316.093,183.32z M394.568,268.662c-2.74,2.899-6.444,4.558-10.431,4.67
		c-3.968,0.119-7.776-1.335-10.636-4.038l-48.908-47.406l0-40.11l69.381,65.779C399.956,253.213,400.223,262.681,394.568,268.662z"
		/>
	<path d="M125.071,25.742H96.822c-2.347,0-4.25,1.902-4.25,4.25v25.531c0,2.348,1.903,4.25,4.25,4.25h28.249
		c2.347,0,4.25-1.902,4.25-4.25V29.992C129.321,27.645,127.418,25.742,125.071,25.742z M120.821,51.273h-19.749V34.242h19.749
		V51.273z"/>
	<path d="M227.621,320.789c-2.347,0-4.25,1.902-4.25,4.25v53c0,2.348,1.903,4.25,4.25,4.25c2.347,0,4.25-1.902,4.25-4.25v-53
		C231.871,322.691,229.968,320.789,227.621,320.789z"/>
</g>
<g>
</g>
<g>
</g>
<g>
</g>
<g>
</g>
<g>
</g>
<g>
</g>
<g>
</g>
<g>
</g>
<g>
</g>
<g>
</g>
<g>
</g>
<g>
</g>
<g>
</g>
<g>
</g>
<g>
</g>
</svg>
