<?xml version="1.0" encoding="iso-8859-1"?>
<!-- Generator: Adobe Illustrator 19.0.0, SVG Export Plug-In . SVG Version: 6.00 Build 0)  -->
<svg version="1.1" id="Capa_1" xmlns="http://www.w3.org/2000/svg" xmlns:xlink="http://www.w3.org/1999/xlink" x="0px" y="0px"
	 viewBox="0 0 495.234 495.234" style="enable-background:new 0 0 495.234 495.234;" xml:space="preserve">
<g>
	<path style="fill:#010002;" stroke-width="1" d="M247.617,113.785c26.433,0,47.938-25.523,47.938-56.892S274.051,0,247.617,0
		s-47.94,25.523-47.94,56.892S221.184,113.785,247.617,113.785z M247.617,15.862c17.687,0,32.076,18.406,32.076,41.031
		s-14.39,41.031-32.076,41.031c-17.688,0-32.078-18.406-32.078-41.031S229.929,15.862,247.617,15.862z"/>
	<path style="fill:#010002;" d="M347.003,166.827c-2.614-22.514-18.171-26.88-34.639-31.503c-18.499-5.193-45.228-7.302-64.393-8.16
		c-0.134-0.007-0.258,0.02-0.39,0.019c-0.107,0-0.209-0.023-0.316-0.019c-19.166,0.858-45.894,2.967-64.395,8.16
		c-16.468,4.623-32.024,8.989-34.637,31.503c-1.408,12.127-0.383,59.344,1.893,87.105l0.625,7.825
		c2.031,25.694,3.373,42.668,12.869,52.588c8.286,8.658,18.199,11.16,26.535,12.872c5.335,47.098,11.361,99.963,18.188,143.91
		c0.652,22.16,26.193,23.461,38.872,24.106l0.004-0.079c0.248,0.023,0.49,0.072,0.743,0.072c0.137,0,0.275-0.004,0.412-0.009
		c12.333-0.628,37.871-1.929,38.523-24.089c6.825-43.947,12.852-96.818,18.186-143.91c8.337-1.712,18.25-4.213,26.535-12.872
		c9.499-9.922,10.84-26.905,12.871-52.61l0.623-7.803C347.384,226.185,348.411,178.971,347.003,166.827z M329.302,252.635
		l-0.628,7.851c-1.699,21.512-2.927,37.053-8.517,42.892c-3.756,3.923-8.27,5.834-13.158,7.133l4.805-41.619
		c0.503-4.344-2.607-8.275-6.949-8.787c-4.335-0.523-8.28,2.588-8.803,6.931c-2.071,17.237-4.191,35.965-6.39,55.382
		c-5.423,47.874-11.566,102.136-18.521,146.799c-0.06,0.383-0.091,0.769-0.095,1.155c-0.047,5.796-5.899,8.075-23.448,8.999
		c-17.45-0.895-23.361-3.168-23.408-8.999c-0.004-0.386-0.035-0.772-0.095-1.155c-6.958-44.687-13.106-98.976-18.53-146.876
		c-2.195-19.39-4.313-38.091-6.381-55.306c-0.523-4.341-4.441-7.457-8.801-6.931c-4.344,0.512-7.454,4.441-6.951,8.785l4.805,41.621
		c-4.889-1.299-9.404-3.209-13.162-7.135c-5.587-5.836-6.814-21.37-8.514-42.869l-0.63-7.872
		c-2.335-28.514-3.138-73.685-1.944-83.98c1.268-10.916,5.235-13.025,23.169-18.06c13.432-3.77,34.338-6.383,60.461-7.566
		c26.122,1.183,47.029,3.796,60.459,7.566c17.936,5.035,21.903,7.144,23.171,18.06C332.442,178.963,331.637,224.136,329.302,252.635
		z"/>
</g>
<g>
</g>
<g>
</g>
<g>
</g>
<g>
</g>
<g>
</g>
<g>
</g>
<g>
</g>
<g>
</g>
<g>
</g>
<g>
</g>
<g>
</g>
<g>
</g>
<g>
</g>
<g>
</g>
<g>
</g>
</svg>
